<svg width="130" height="32" viewBox="0 0 130 32" fill="none" xmlns="http://www.w3.org/2000/svg">
<path d="M0 0H31.7476V32H0V0Z" fill="#7D2EE2"/>
<path d="M2.5432 2.99065C2.5432 2.7547 2.73297 2.56342 2.96707 2.56342H17.6553C18.1384 2.56342 18.2453 3.24748 17.7856 3.39719L10.3352 5.82379C10.031 5.92287 9.94095 6.3128 10.1705 6.53709L18.5162 14.6917C18.8601 15.0276 18.4739 15.5906 18.0406 15.3849L6.87694 10.0855C6.65243 9.97895 6.38551 10.0887 6.29904 10.3232L3.36437 18.2807C3.19971 18.7272 2.5432 18.6082 2.5432 18.1318V2.99065Z" fill="white"/>
<path d="M47.542 17.787V20.5333H41.8463V23.5002H46.1081V26.1664H41.8463V31.8597H38.4408V17.787H47.542Z" fill="white"/>
<path d="M52.6776 17.787V26.2065C52.6776 27.0485 52.8834 27.6967 53.2949 28.151C53.7065 28.6054 54.3106 28.8326 55.1072 28.8326C55.9038 28.8326 56.5145 28.6054 56.9394 28.151C57.3642 27.6967 57.5767 27.0485 57.5767 26.2065V17.787H60.9821V26.1865C60.9821 27.4427 60.7166 28.5052 60.1855 29.3739C59.6545 30.2426 58.9375 30.8974 58.0347 31.3385C57.1452 31.7795 56.1494 32 55.0475 32C53.9455 32 52.9564 31.7862 52.0801 31.3585C51.2171 30.9175 50.5334 30.2626 50.0289 29.3939C49.5244 28.5119 49.2721 27.4427 49.2721 26.1865V17.787H52.6776Z" fill="white"/>
<path d="M73.4305 17.787V20.5333H69.7264V31.8597H66.3209V20.5333H62.6167V17.787H73.4305Z" fill="white"/>
<path d="M78.4854 17.787V26.2065C78.4854 27.0485 78.6912 27.6967 79.1027 28.151C79.5143 28.6054 80.1184 28.8326 80.915 28.8326C81.7116 28.8326 82.3223 28.6054 82.7472 28.151C83.172 27.6967 83.3845 27.0485 83.3845 26.2065V17.787H86.7899V26.1865C86.7899 27.4427 86.5244 28.5052 85.9933 29.3739C85.4623 30.2426 84.7453 30.8974 83.8425 31.3385C82.953 31.7795 81.9572 32 80.8553 32C79.7533 32 78.7642 31.7862 77.8879 31.3585C77.0249 30.9175 76.3412 30.2626 75.8367 29.3939C75.3322 28.5119 75.0799 27.4427 75.0799 26.1865V17.787H78.4854Z" fill="white"/>
<path d="M96.3108 31.8597L93.4033 26.5473H92.5867V31.8597H89.1813V17.787H94.8969C95.9988 17.787 96.9349 17.9807 97.7049 18.3683C98.4882 18.7559 99.0724 19.2904 99.4574 19.972C99.8424 20.6403 100.035 21.3887 100.035 22.2173C100.035 23.1528 99.7694 23.988 99.2384 24.7231C98.7206 25.4581 97.9505 25.9793 96.9282 26.2867L100.154 31.8597H96.3108ZM92.5867 24.1217H94.6977C95.3217 24.1217 95.7864 23.968 96.0918 23.6606C96.4104 23.3532 96.5697 22.9189 96.5697 22.3576C96.5697 21.823 96.4104 21.402 96.0918 21.0946C95.7864 20.7873 95.3217 20.6336 94.6977 20.6336H92.5867V24.1217Z" fill="white"/>
<path d="M110.876 29.3739H105.658L104.821 31.8597H101.257L106.315 17.787H110.258L115.317 31.8597H111.712L110.876 29.3739ZM109.999 26.7277L108.267 21.5758L106.554 26.7277H109.999Z" fill="white"/>
<path d="M125.559 29.3739H120.341L119.505 31.8597H115.94L120.998 17.787H124.942L130 31.8597H126.395L125.559 29.3739ZM124.683 26.7277L122.95 21.5758L121.237 26.7277H124.683Z" fill="white"/>
<path d="M56.7693 0L53.2867 13.4476H49.3474L47.2161 4.59746L45.0085 13.4476H41.0693L37.6819 0H41.1644L43.0865 9.78876L45.4653 0H49.043L51.3266 9.78876L53.2677 0H56.7693Z" fill="white"/>
<path d="M61.6554 2.62438V5.34455H66.0134V7.87315H61.6554V10.8232H66.5843V13.4476H58.4013V0H66.5843V2.62438H61.6554Z" fill="white"/>
</svg>
